<svg width="40" height="37" viewBox="0 0 40 37" fill="none" xmlns="http://www.w3.org/2000/svg">
<path d="M1.01074 27.8664H1.83252L3.92871 33.0827L6.02051 27.8664H6.84668L4.24512 34.2648H3.60352L1.01074 27.8664ZM0.742676 27.8664H1.46777L1.58643 31.7687V34.2648H0.742676V27.8664ZM6.38525 27.8664H7.11035V34.2648H6.2666V31.7687L6.38525 27.8664ZM8.26172 31.9401V31.8391C8.26172 31.4963 8.31152 31.1784 8.41113 30.8854C8.51074 30.5895 8.6543 30.3332 8.8418 30.1164C9.0293 29.8967 9.25635 29.7267 9.52295 29.6066C9.78955 29.4836 10.0884 29.4221 10.4194 29.4221C10.7534 29.4221 11.0537 29.4836 11.3203 29.6066C11.5898 29.7267 11.8184 29.8967 12.0059 30.1164C12.1963 30.3332 12.3413 30.5895 12.4409 30.8854C12.5405 31.1784 12.5903 31.4963 12.5903 31.8391V31.9401C12.5903 32.2829 12.5405 32.6008 12.4409 32.8937C12.3413 33.1867 12.1963 33.4431 12.0059 33.6628C11.8184 33.8796 11.5913 34.0495 11.3247 34.1725C11.061 34.2927 10.7622 34.3527 10.4282 34.3527C10.0942 34.3527 9.79395 34.2927 9.52734 34.1725C9.26074 34.0495 9.03223 33.8796 8.8418 33.6628C8.6543 33.4431 8.51074 33.1867 8.41113 32.8937C8.31152 32.6008 8.26172 32.2829 8.26172 31.9401ZM9.07471 31.8391V31.9401C9.07471 32.1774 9.10254 32.4016 9.1582 32.6125C9.21387 32.8205 9.29736 33.0051 9.40869 33.1662C9.52295 33.3273 9.66504 33.4548 9.83496 33.5485C10.0049 33.6393 10.2026 33.6848 10.4282 33.6848C10.6509 33.6848 10.8457 33.6393 11.0127 33.5485C11.1826 33.4548 11.3232 33.3273 11.4346 33.1662C11.5459 33.0051 11.6294 32.8205 11.6851 32.6125C11.7437 32.4016 11.7729 32.1774 11.7729 31.9401V31.8391C11.7729 31.6047 11.7437 31.3835 11.6851 31.1755C11.6294 30.9645 11.5444 30.7785 11.4302 30.6174C11.3188 30.4533 11.1782 30.3244 11.0083 30.2307C10.8413 30.1369 10.645 30.09 10.4194 30.09C10.1968 30.09 10.0005 30.1369 9.83057 30.2307C9.66357 30.3244 9.52295 30.4533 9.40869 30.6174C9.29736 30.7785 9.21387 30.9645 9.1582 31.1755C9.10254 31.3835 9.07471 31.6047 9.07471 31.8391ZM14.9854 33.5309L16.2861 29.5099H17.1167L15.4072 34.2648H14.8623L14.9854 33.5309ZM13.8999 29.5099L15.2402 33.5529L15.3325 34.2648H14.7876L13.0649 29.5099H13.8999ZM18.7822 29.5099V34.2648H17.9648V29.5099H18.7822ZM17.9033 28.2487C17.9033 28.1169 17.9429 28.0056 18.022 27.9147C18.104 27.8239 18.2241 27.7785 18.3823 27.7785C18.5376 27.7785 18.6562 27.8239 18.7383 27.9147C18.8232 28.0056 18.8657 28.1169 18.8657 28.2487C18.8657 28.3747 18.8232 28.4831 18.7383 28.5739C18.6562 28.6618 18.5376 28.7057 18.3823 28.7057C18.2241 28.7057 18.104 28.6618 18.022 28.5739C17.9429 28.4831 17.9033 28.3747 17.9033 28.2487ZM22.0605 34.3527C21.7295 34.3527 21.4292 34.2971 21.1597 34.1857C20.8931 34.0715 20.6631 33.9118 20.4697 33.7067C20.2793 33.5016 20.1328 33.2585 20.0303 32.9772C19.9277 32.696 19.8765 32.3884 19.8765 32.0544V31.8698C19.8765 31.4831 19.9336 31.1389 20.0479 30.8371C20.1621 30.5324 20.3174 30.2746 20.5137 30.0637C20.71 29.8527 20.9326 29.6931 21.1816 29.5847C21.4307 29.4763 21.6885 29.4221 21.9551 29.4221C22.2949 29.4221 22.5879 29.4807 22.834 29.5978C23.083 29.715 23.2866 29.8791 23.4448 30.09C23.603 30.298 23.7202 30.5441 23.7964 30.8283C23.8726 31.1096 23.9106 31.4172 23.9106 31.7512V32.1159H20.3599V31.4523H23.0977V31.3908C23.0859 31.1799 23.042 30.9748 22.9658 30.7756C22.8926 30.5764 22.7754 30.4123 22.6143 30.2834C22.4531 30.1545 22.2334 30.09 21.9551 30.09C21.7705 30.09 21.6006 30.1296 21.4453 30.2087C21.29 30.2849 21.1567 30.3991 21.0454 30.5515C20.9341 30.7038 20.8477 30.8898 20.7861 31.1096C20.7246 31.3293 20.6938 31.5827 20.6938 31.8698V32.0544C20.6938 32.28 20.7246 32.4924 20.7861 32.6916C20.8506 32.8879 20.9429 33.0607 21.063 33.2101C21.186 33.3596 21.334 33.4767 21.5068 33.5617C21.6826 33.6467 21.8818 33.6891 22.1045 33.6891C22.3916 33.6891 22.6348 33.6306 22.834 33.5134C23.0332 33.3962 23.2075 33.2394 23.3569 33.0432L23.8491 33.4343C23.7466 33.5895 23.6162 33.7375 23.458 33.8781C23.2998 34.0187 23.105 34.133 22.8735 34.2209C22.645 34.3088 22.374 34.3527 22.0605 34.3527ZM27.9756 27.5148V34.2648H27.1582V27.5148H27.9756ZM30.1641 29.5099V34.2648H29.3467V29.5099H30.1641ZM29.2852 28.2487C29.2852 28.1169 29.3247 28.0056 29.4038 27.9147C29.4858 27.8239 29.606 27.7785 29.7642 27.7785C29.9194 27.7785 30.0381 27.8239 30.1201 27.9147C30.2051 28.0056 30.2476 28.1169 30.2476 28.2487C30.2476 28.3747 30.2051 28.4831 30.1201 28.5739C30.0381 28.6618 29.9194 28.7057 29.7642 28.7057C29.606 28.7057 29.4858 28.6618 29.4038 28.5739C29.3247 28.4831 29.2852 28.3747 29.2852 28.2487ZM34.2378 33.0036C34.2378 32.8864 34.2114 32.778 34.1587 32.6784C34.1089 32.5759 34.0049 32.4836 33.8467 32.4016C33.6914 32.3166 33.457 32.2433 33.1436 32.1818C32.8799 32.1262 32.6411 32.0602 32.4272 31.9841C32.2163 31.9079 32.0361 31.8156 31.8867 31.7072C31.7402 31.5988 31.6274 31.4714 31.5483 31.3249C31.4692 31.1784 31.4297 31.007 31.4297 30.8107C31.4297 30.6232 31.4707 30.446 31.5527 30.279C31.6377 30.112 31.7563 29.9641 31.9087 29.8351C32.064 29.7062 32.25 29.6052 32.4668 29.5319C32.6836 29.4587 32.9253 29.4221 33.1919 29.4221C33.5728 29.4221 33.8979 29.4894 34.1675 29.6242C34.437 29.759 34.6436 29.9391 34.7871 30.1647C34.9307 30.3874 35.0024 30.6349 35.0024 30.9074H34.1895C34.1895 30.7756 34.1499 30.6481 34.0708 30.5251C33.9946 30.3991 33.8818 30.2951 33.7324 30.2131C33.5859 30.131 33.4058 30.09 33.1919 30.09C32.9663 30.09 32.7832 30.1252 32.6426 30.1955C32.5049 30.2629 32.4038 30.3493 32.3394 30.4548C32.2778 30.5602 32.2471 30.6716 32.2471 30.7888C32.2471 30.8766 32.2617 30.9557 32.291 31.0261C32.3232 31.0934 32.3789 31.1564 32.458 31.215C32.5371 31.2707 32.6484 31.3234 32.792 31.3732C32.9355 31.423 33.1187 31.4728 33.3413 31.5226C33.731 31.6105 34.0518 31.716 34.3037 31.8391C34.5557 31.9621 34.7432 32.113 34.8662 32.2917C34.9893 32.4704 35.0508 32.6872 35.0508 32.9421C35.0508 33.1501 35.0068 33.3405 34.9189 33.5134C34.834 33.6862 34.7095 33.8356 34.5454 33.9616C34.3843 34.0847 34.1909 34.1813 33.9653 34.2516C33.7427 34.319 33.4922 34.3527 33.2139 34.3527C32.7949 34.3527 32.4404 34.278 32.1504 34.1286C31.8604 33.9792 31.6406 33.7858 31.4912 33.5485C31.3418 33.3112 31.2671 33.0607 31.2671 32.7971H32.0845C32.0962 33.0197 32.1606 33.197 32.2778 33.3288C32.395 33.4577 32.5386 33.55 32.7085 33.6057C32.8784 33.6584 33.0469 33.6848 33.2139 33.6848C33.4365 33.6848 33.6226 33.6555 33.772 33.5969C33.9243 33.5383 34.04 33.4577 34.1191 33.3552C34.1982 33.2526 34.2378 33.1354 34.2378 33.0036ZM38.1094 29.5099V30.134H35.5386V29.5099H38.1094ZM36.4087 28.3542H37.2217V33.0871C37.2217 33.2482 37.2466 33.3698 37.2964 33.4518C37.3462 33.5339 37.4106 33.5881 37.4897 33.6144C37.5688 33.6408 37.6538 33.654 37.7446 33.654C37.812 33.654 37.8823 33.6481 37.9556 33.6364C38.0317 33.6218 38.0889 33.61 38.127 33.6013L38.1313 34.2648C38.0669 34.2853 37.9819 34.3044 37.8765 34.322C37.7739 34.3425 37.6494 34.3527 37.5029 34.3527C37.3037 34.3527 37.1206 34.3132 36.9536 34.2341C36.7866 34.155 36.6533 34.0231 36.5537 33.8386C36.457 33.6511 36.4087 33.3991 36.4087 33.0827V28.3542Z" fill="#FE966C"/>
<path d="M32.6316 7.0806L31.3026 10.7911V10.778C30.6184 10.528 29.9474 10.5674 29.2895 10.8832C28.6316 11.199 28.1711 11.699 27.9211 12.3832C27.6711 13.0674 27.7105 13.7385 28.0132 14.3964C28.329 15.0543 28.829 15.5016 29.5263 15.7516V15.7648L28.1974 19.4753L8.38159 12.3964L9.68422 8.72533C10.3684 8.97533 11.0395 8.93586 11.6974 8.62007C12.3553 8.31744 12.8026 7.81744 13.0526 7.13323C13.3026 6.44902 13.2632 5.77796 12.9474 5.12007C12.8035 4.80725 12.5975 4.52695 12.3419 4.29623C12.0863 4.06551 11.7864 3.88918 11.4605 3.77796L12.8026 0.00164795L32.6316 7.0806ZM26.0921 14.5674L27.8947 9.62007C28.0526 9.21217 28.0263 8.76481 27.8421 8.37007C27.6579 7.97533 27.329 7.6727 26.9211 7.51481L17.0263 3.9227C16.1842 3.62007 15.2237 4.0806 14.9211 4.89638L13.1184 9.84375C12.8026 10.699 13.25 11.6464 14.0921 11.949L23.9868 15.5543C24.1711 15.6201 24.3553 15.6595 24.5526 15.6595C25.2368 15.6595 25.8684 15.2253 26.0921 14.5674ZM16.8026 4.54112L26.6842 8.13323C26.9342 8.22533 27.1316 8.40954 27.25 8.64639C27.3553 8.88323 27.3684 9.14639 27.2763 9.39639L25.4737 14.3438C25.3026 14.8438 24.7105 15.1201 24.2105 14.9359L14.329 11.3306C14.083 11.2415 13.8825 11.0584 13.7714 10.8216C13.6604 10.5847 13.648 10.3135 13.7368 10.0674L15.5395 5.12007C15.6711 4.73849 16.0526 4.47533 16.4605 4.47533C16.579 4.47533 16.6842 4.50165 16.8026 4.54112ZM25.7763 20.5148C26.2368 20.8701 26.7632 21.0543 27.3553 21.0543H27.3684V25.0016H6.3158V21.1069C7.03948 21.1069 7.67106 20.8438 8.17106 20.3306C8.68422 19.8306 8.94737 19.199 8.94737 18.4753C8.94737 17.7516 8.68422 17.1332 8.17106 16.6201C7.6579 16.1069 7.03948 15.8438 6.3158 15.8438V11.8438H7.69737L7.32895 12.8964L11.1053 14.2385C10.4342 14.449 9.93422 15.0543 9.93422 15.7911V21.0543C9.93422 21.9622 10.6711 22.699 11.579 22.699H22.1053C23.0132 22.699 23.75 21.9622 23.75 21.0543V18.7516L24.8421 19.1464C25 19.7122 25.3158 20.1727 25.7763 20.5148ZM10.5921 21.0543V15.7911C10.5921 15.2516 11.0395 14.8043 11.579 14.8043H12.6711L23.0921 18.528V21.0543C23.0921 21.5938 22.6447 22.0411 22.1053 22.0411H11.579C11.0395 22.0411 10.5921 21.5938 10.5921 21.0543Z" fill="#FE966C"/>
</svg>
