<svg width="40" height="37" viewBox="0 0 40 37" fill="none" xmlns="http://www.w3.org/2000/svg">
<path d="M1.01074 27.8647H1.83252L3.92871 33.0811L6.02051 27.8647H6.84668L4.24512 34.2632H3.60352L1.01074 27.8647ZM0.742676 27.8647H1.46777L1.58643 31.7671V34.2632H0.742676V27.8647ZM6.38525 27.8647H7.11035V34.2632H6.2666V31.7671L6.38525 27.8647ZM8.26172 31.9385V31.8374C8.26172 31.4946 8.31152 31.1768 8.41113 30.8838C8.51074 30.5879 8.6543 30.3315 8.8418 30.1147C9.0293 29.895 9.25635 29.7251 9.52295 29.605C9.78955 29.4819 10.0884 29.4204 10.4194 29.4204C10.7534 29.4204 11.0537 29.4819 11.3203 29.605C11.5898 29.7251 11.8184 29.895 12.0059 30.1147C12.1963 30.3315 12.3413 30.5879 12.4409 30.8838C12.5405 31.1768 12.5903 31.4946 12.5903 31.8374V31.9385C12.5903 32.2812 12.5405 32.5991 12.4409 32.8921C12.3413 33.1851 12.1963 33.4414 12.0059 33.6611C11.8184 33.8779 11.5913 34.0479 11.3247 34.1709C11.061 34.291 10.7622 34.3511 10.4282 34.3511C10.0942 34.3511 9.79395 34.291 9.52734 34.1709C9.26074 34.0479 9.03223 33.8779 8.8418 33.6611C8.6543 33.4414 8.51074 33.1851 8.41113 32.8921C8.31152 32.5991 8.26172 32.2812 8.26172 31.9385ZM9.07471 31.8374V31.9385C9.07471 32.1758 9.10254 32.3999 9.1582 32.6108C9.21387 32.8188 9.29736 33.0034 9.40869 33.1646C9.52295 33.3257 9.66504 33.4531 9.83496 33.5469C10.0049 33.6377 10.2026 33.6831 10.4282 33.6831C10.6509 33.6831 10.8457 33.6377 11.0127 33.5469C11.1826 33.4531 11.3232 33.3257 11.4346 33.1646C11.5459 33.0034 11.6294 32.8188 11.6851 32.6108C11.7437 32.3999 11.7729 32.1758 11.7729 31.9385V31.8374C11.7729 31.603 11.7437 31.3818 11.6851 31.1738C11.6294 30.9629 11.5444 30.7769 11.4302 30.6157C11.3188 30.4517 11.1782 30.3228 11.0083 30.229C10.8413 30.1353 10.645 30.0884 10.4194 30.0884C10.1968 30.0884 10.0005 30.1353 9.83057 30.229C9.66357 30.3228 9.52295 30.4517 9.40869 30.6157C9.29736 30.7769 9.21387 30.9629 9.1582 31.1738C9.10254 31.3818 9.07471 31.603 9.07471 31.8374ZM14.9854 33.5293L16.2861 29.5083H17.1167L15.4072 34.2632H14.8623L14.9854 33.5293ZM13.8999 29.5083L15.2402 33.5513L15.3325 34.2632H14.7876L13.0649 29.5083H13.8999ZM18.7822 29.5083V34.2632H17.9648V29.5083H18.7822ZM17.9033 28.2471C17.9033 28.1152 17.9429 28.0039 18.022 27.9131C18.104 27.8223 18.2241 27.7769 18.3823 27.7769C18.5376 27.7769 18.6562 27.8223 18.7383 27.9131C18.8232 28.0039 18.8657 28.1152 18.8657 28.2471C18.8657 28.373 18.8232 28.4814 18.7383 28.5723C18.6562 28.6602 18.5376 28.7041 18.3823 28.7041C18.2241 28.7041 18.104 28.6602 18.022 28.5723C17.9429 28.4814 17.9033 28.373 17.9033 28.2471ZM22.0605 34.3511C21.7295 34.3511 21.4292 34.2954 21.1597 34.1841C20.8931 34.0698 20.6631 33.9102 20.4697 33.7051C20.2793 33.5 20.1328 33.2568 20.0303 32.9756C19.9277 32.6943 19.8765 32.3867 19.8765 32.0527V31.8682C19.8765 31.4814 19.9336 31.1372 20.0479 30.8354C20.1621 30.5308 20.3174 30.2729 20.5137 30.062C20.71 29.8511 20.9326 29.6914 21.1816 29.583C21.4307 29.4746 21.6885 29.4204 21.9551 29.4204C22.2949 29.4204 22.5879 29.479 22.834 29.5962C23.083 29.7134 23.2866 29.8774 23.4448 30.0884C23.603 30.2964 23.7202 30.5425 23.7964 30.8267C23.8726 31.1079 23.9106 31.4155 23.9106 31.7495V32.1143H20.3599V31.4507H23.0977V31.3892C23.0859 31.1782 23.042 30.9731 22.9658 30.7739C22.8926 30.5747 22.7754 30.4106 22.6143 30.2817C22.4531 30.1528 22.2334 30.0884 21.9551 30.0884C21.7705 30.0884 21.6006 30.1279 21.4453 30.207C21.29 30.2832 21.1567 30.3975 21.0454 30.5498C20.9341 30.7021 20.8477 30.8882 20.7861 31.1079C20.7246 31.3276 20.6938 31.5811 20.6938 31.8682V32.0527C20.6938 32.2783 20.7246 32.4907 20.7861 32.6899C20.8506 32.8862 20.9429 33.0591 21.063 33.2085C21.186 33.3579 21.334 33.4751 21.5068 33.5601C21.6826 33.645 21.8818 33.6875 22.1045 33.6875C22.3916 33.6875 22.6348 33.6289 22.834 33.5117C23.0332 33.3945 23.2075 33.2378 23.3569 33.0415L23.8491 33.4326C23.7466 33.5879 23.6162 33.7358 23.458 33.8765C23.2998 34.0171 23.105 34.1313 22.8735 34.2192C22.645 34.3071 22.374 34.3511 22.0605 34.3511ZM27.9756 27.5132V34.2632H27.1582V27.5132H27.9756ZM30.1641 29.5083V34.2632H29.3467V29.5083H30.1641ZM29.2852 28.2471C29.2852 28.1152 29.3247 28.0039 29.4038 27.9131C29.4858 27.8223 29.606 27.7769 29.7642 27.7769C29.9194 27.7769 30.0381 27.8223 30.1201 27.9131C30.2051 28.0039 30.2476 28.1152 30.2476 28.2471C30.2476 28.373 30.2051 28.4814 30.1201 28.5723C30.0381 28.6602 29.9194 28.7041 29.7642 28.7041C29.606 28.7041 29.4858 28.6602 29.4038 28.5723C29.3247 28.4814 29.2852 28.373 29.2852 28.2471ZM34.2378 33.002C34.2378 32.8848 34.2114 32.7764 34.1587 32.6768C34.1089 32.5742 34.0049 32.4819 33.8467 32.3999C33.6914 32.3149 33.457 32.2417 33.1436 32.1802C32.8799 32.1245 32.6411 32.0586 32.4272 31.9824C32.2163 31.9062 32.0361 31.814 31.8867 31.7056C31.7402 31.5972 31.6274 31.4697 31.5483 31.3232C31.4692 31.1768 31.4297 31.0054 31.4297 30.8091C31.4297 30.6216 31.4707 30.4443 31.5527 30.2773C31.6377 30.1104 31.7563 29.9624 31.9087 29.8335C32.064 29.7046 32.25 29.6035 32.4668 29.5303C32.6836 29.457 32.9253 29.4204 33.1919 29.4204C33.5728 29.4204 33.8979 29.4878 34.1675 29.6226C34.437 29.7573 34.6436 29.9375 34.7871 30.1631C34.9307 30.3857 35.0024 30.6333 35.0024 30.9058H34.1895C34.1895 30.7739 34.1499 30.6465 34.0708 30.5234C33.9946 30.3975 33.8818 30.2935 33.7324 30.2114C33.5859 30.1294 33.4058 30.0884 33.1919 30.0884C32.9663 30.0884 32.7832 30.1235 32.6426 30.1938C32.5049 30.2612 32.4038 30.3477 32.3394 30.4531C32.2778 30.5586 32.2471 30.6699 32.2471 30.7871C32.2471 30.875 32.2617 30.9541 32.291 31.0244C32.3232 31.0918 32.3789 31.1548 32.458 31.2134C32.5371 31.269 32.6484 31.3218 32.792 31.3716C32.9355 31.4214 33.1187 31.4712 33.3413 31.521C33.731 31.6089 34.0518 31.7144 34.3037 31.8374C34.5557 31.9604 34.7432 32.1113 34.8662 32.29C34.9893 32.4688 35.0508 32.6855 35.0508 32.9404C35.0508 33.1484 35.0068 33.3389 34.9189 33.5117C34.834 33.6846 34.7095 33.834 34.5454 33.96C34.3843 34.083 34.1909 34.1797 33.9653 34.25C33.7427 34.3174 33.4922 34.3511 33.2139 34.3511C32.7949 34.3511 32.4404 34.2764 32.1504 34.127C31.8604 33.9775 31.6406 33.7842 31.4912 33.5469C31.3418 33.3096 31.2671 33.0591 31.2671 32.7954H32.0845C32.0962 33.0181 32.1606 33.1953 32.2778 33.3271C32.395 33.4561 32.5386 33.5483 32.7085 33.604C32.8784 33.6567 33.0469 33.6831 33.2139 33.6831C33.4365 33.6831 33.6226 33.6538 33.772 33.5952C33.9243 33.5366 34.04 33.4561 34.1191 33.3535C34.1982 33.251 34.2378 33.1338 34.2378 33.002ZM38.1094 29.5083V30.1323H35.5386V29.5083H38.1094ZM36.4087 28.3525H37.2217V33.0854C37.2217 33.2466 37.2466 33.3682 37.2964 33.4502C37.3462 33.5322 37.4106 33.5864 37.4897 33.6128C37.5688 33.6392 37.6538 33.6523 37.7446 33.6523C37.812 33.6523 37.8823 33.6465 37.9556 33.6348C38.0317 33.6201 38.0889 33.6084 38.127 33.5996L38.1313 34.2632C38.0669 34.2837 37.9819 34.3027 37.8765 34.3203C37.7739 34.3408 37.6494 34.3511 37.5029 34.3511C37.3037 34.3511 37.1206 34.3115 36.9536 34.2324C36.7866 34.1533 36.6533 34.0215 36.5537 33.8369C36.457 33.6494 36.4087 33.3975 36.4087 33.0811V28.3525Z" fill="#FFFFFC"/>
<path d="M32.6315 7.07895L31.3025 10.7895V10.7763C30.6183 10.5263 29.9473 10.5658 29.2894 10.8816C28.6315 11.1974 28.1709 11.6974 27.9209 12.3816C27.6709 13.0658 27.7104 13.7368 28.013 14.3947C28.3288 15.0526 28.8288 15.5 29.5262 15.75V15.7632L28.1973 19.4737L8.38146 12.3947L9.68409 8.72368C10.3683 8.97368 11.0394 8.93421 11.6973 8.61842C12.3551 8.31579 12.8025 7.81579 13.0525 7.13158C13.3025 6.44737 13.263 5.77632 12.9473 5.11842C12.8034 4.8056 12.5973 4.52531 12.3417 4.29459C12.0861 4.06386 11.7863 3.88753 11.4604 3.77632L12.8025 0L32.6315 7.07895ZM26.092 14.5658L27.8946 9.61842C28.0525 9.21053 28.0262 8.76316 27.842 8.36842C27.6578 7.97368 27.3288 7.67105 26.9209 7.51316L17.0262 3.92105C16.1841 3.61842 15.2236 4.07895 14.9209 4.89474L13.1183 9.8421C12.8025 10.6974 13.2499 11.6447 14.092 11.9474L23.9867 15.5526C24.1709 15.6184 24.3551 15.6579 24.5525 15.6579C25.2367 15.6579 25.8683 15.2237 26.092 14.5658V14.5658ZM16.8025 4.53947L26.6841 8.13158C26.9341 8.22368 27.1315 8.40789 27.2499 8.64474C27.3551 8.88158 27.3683 9.14474 27.2762 9.39474L25.4736 14.3421C25.3025 14.8421 24.7104 15.1184 24.2104 14.9342L14.3288 11.3289C14.0829 11.2399 13.8823 11.0568 13.7713 10.8199C13.6603 10.5831 13.6478 10.3118 13.7367 10.0658L15.5394 5.11842C15.6709 4.73684 16.0525 4.47368 16.4604 4.47368C16.5788 4.47368 16.6841 4.5 16.8025 4.53947V4.53947ZM25.7762 20.5132C26.2367 20.8684 26.763 21.0526 27.3551 21.0526H27.3683V25H6.31567V21.1053C7.03936 21.1053 7.67094 20.8421 8.17094 20.3289C8.68409 19.8289 8.94725 19.1974 8.94725 18.4737C8.94725 17.75 8.68409 17.1316 8.17094 16.6184C7.65778 16.1053 7.03936 15.8421 6.31567 15.8421V11.8421H7.69725L7.32883 12.8947L11.1051 14.2368C10.4341 14.4474 9.93409 15.0526 9.93409 15.7895V21.0526C9.93409 21.9605 10.6709 22.6974 11.5788 22.6974H22.1051C23.013 22.6974 23.7499 21.9605 23.7499 21.0526V18.75L24.842 19.1447C24.9999 19.7105 25.3157 20.1711 25.7762 20.5132ZM10.592 21.0526V15.7895C10.592 15.25 11.0394 14.8026 11.5788 14.8026H12.6709L23.092 18.5263V21.0526C23.092 21.5921 22.6446 22.0395 22.1051 22.0395H11.5788C11.0394 22.0395 10.592 21.5921 10.592 21.0526Z" fill="#FFFFFC"/>
</svg>
