<svg width="32" height="37" viewBox="0 0 32 37" fill="none" xmlns="http://www.w3.org/2000/svg">
<path d="M12.8 26.8809V17.3939H19.2V26.8809H27.2V14.2315H32L16 0.000915527L0 14.2315H4.8V26.8809H12.8Z" fill="url(#paint0_linear_218_129)"/>
<path d="M8.92188 32.3144V33.0043H5.45898V32.3144H8.92188ZM5.59082 29.5634V35.9619H4.74268V29.5634H5.59082ZM9.66016 29.5634V35.9619H8.81641V29.5634H9.66016ZM10.8291 33.6371V33.5361C10.8291 33.1933 10.8789 32.8754 10.9785 32.5825C11.0781 32.2866 11.2217 32.0302 11.4092 31.8134C11.5967 31.5937 11.8237 31.4238 12.0903 31.3036C12.3569 31.1806 12.6558 31.1191 12.9868 31.1191C13.3208 31.1191 13.6211 31.1806 13.8877 31.3036C14.1572 31.4238 14.3857 31.5937 14.5732 31.8134C14.7637 32.0302 14.9087 32.2866 15.0083 32.5825C15.1079 32.8754 15.1577 33.1933 15.1577 33.5361V33.6371C15.1577 33.9799 15.1079 34.2978 15.0083 34.5908C14.9087 34.8837 14.7637 35.1401 14.5732 35.3598C14.3857 35.5766 14.1587 35.7465 13.8921 35.8696C13.6284 35.9897 13.3296 36.0497 12.9956 36.0497C12.6616 36.0497 12.3613 35.9897 12.0947 35.8696C11.8281 35.7465 11.5996 35.5766 11.4092 35.3598C11.2217 35.1401 11.0781 34.8837 10.9785 34.5908C10.8789 34.2978 10.8291 33.9799 10.8291 33.6371ZM11.6421 33.5361V33.6371C11.6421 33.8745 11.6699 34.0986 11.7256 34.3095C11.7812 34.5175 11.8647 34.7021 11.9761 34.8632C12.0903 35.0244 12.2324 35.1518 12.4023 35.2455C12.5723 35.3364 12.77 35.3818 12.9956 35.3818C13.2183 35.3818 13.4131 35.3364 13.5801 35.2455C13.75 35.1518 13.8906 35.0244 14.002 34.8632C14.1133 34.7021 14.1968 34.5175 14.2524 34.3095C14.311 34.0986 14.3403 33.8745 14.3403 33.6371V33.5361C14.3403 33.3017 14.311 33.0805 14.2524 32.8725C14.1968 32.6616 14.1118 32.4755 13.9976 32.3144C13.8862 32.1503 13.7456 32.0214 13.5757 31.9277C13.4087 31.8339 13.2124 31.787 12.9868 31.787C12.7642 31.787 12.5679 31.8339 12.3979 31.9277C12.231 32.0214 12.0903 32.1503 11.9761 32.3144C11.8647 32.4755 11.7812 32.6616 11.7256 32.8725C11.6699 33.0805 11.6421 33.3017 11.6421 33.5361ZM16.9858 32.1518V35.9619H16.1685V31.207H16.9419L16.9858 32.1518ZM16.8188 33.4042L16.4409 33.3911C16.4438 33.0659 16.4863 32.7656 16.5684 32.4902C16.6504 32.2119 16.772 31.9702 16.9331 31.7651C17.0942 31.56 17.2949 31.4018 17.5352 31.2905C17.7754 31.1762 18.0537 31.1191 18.3701 31.1191C18.5928 31.1191 18.7979 31.1513 18.9854 31.2158C19.1729 31.2773 19.3354 31.3754 19.4731 31.5102C19.6108 31.645 19.7178 31.8178 19.7939 32.0287C19.8701 32.2397 19.9082 32.4946 19.9082 32.7934V35.9619H19.0952V32.8329C19.0952 32.5839 19.0527 32.3847 18.9678 32.2353C18.8857 32.0859 18.7686 31.9775 18.6162 31.9101C18.4639 31.8398 18.2852 31.8046 18.0801 31.8046C17.8398 31.8046 17.6392 31.8471 17.478 31.9321C17.3169 32.017 17.188 32.1342 17.0913 32.2836C16.9946 32.433 16.9243 32.6044 16.8804 32.7978C16.8394 32.9882 16.8188 33.1904 16.8188 33.4042ZM19.8994 32.956L19.3545 33.123C19.3574 32.8622 19.3999 32.6118 19.4819 32.3715C19.5669 32.1313 19.6885 31.9174 19.8467 31.7299C20.0078 31.5424 20.2056 31.3945 20.4399 31.2861C20.6743 31.1747 20.9424 31.1191 21.2441 31.1191C21.499 31.1191 21.7246 31.1528 21.9209 31.2202C22.1201 31.2875 22.2871 31.3915 22.4219 31.5322C22.5596 31.6699 22.6636 31.8471 22.7339 32.0639C22.8042 32.2807 22.8394 32.5385 22.8394 32.8373V35.9619H22.022V32.8286C22.022 32.562 21.9795 32.3554 21.8945 32.2089C21.8125 32.0595 21.6953 31.9555 21.543 31.8969C21.3936 31.8354 21.2148 31.8046 21.0068 31.8046C20.8281 31.8046 20.6699 31.8354 20.5322 31.8969C20.3945 31.9584 20.2788 32.0434 20.1851 32.1518C20.0913 32.2573 20.0195 32.3788 19.9697 32.5165C19.9229 32.6542 19.8994 32.8007 19.8994 32.956ZM26.043 36.0497C25.7119 36.0497 25.4116 35.9941 25.1421 35.8828C24.8755 35.7685 24.6455 35.6088 24.4521 35.4037C24.2617 35.1987 24.1152 34.9555 24.0127 34.6743C23.9102 34.393 23.8589 34.0854 23.8589 33.7514V33.5668C23.8589 33.1801 23.916 32.8359 24.0303 32.5341C24.1445 32.2294 24.2998 31.9716 24.4961 31.7607C24.6924 31.5497 24.915 31.3901 25.1641 31.2817C25.4131 31.1733 25.6709 31.1191 25.9375 31.1191C26.2773 31.1191 26.5703 31.1777 26.8164 31.2949C27.0654 31.412 27.269 31.5761 27.4272 31.787C27.5854 31.9951 27.7026 32.2411 27.7788 32.5253C27.855 32.8066 27.8931 33.1142 27.8931 33.4482V33.8129H24.3423V33.1494H27.0801V33.0878C27.0684 32.8769 27.0244 32.6718 26.9482 32.4726C26.875 32.2734 26.7578 32.1093 26.5967 31.9804C26.4355 31.8515 26.2158 31.787 25.9375 31.787C25.7529 31.787 25.583 31.8266 25.4277 31.9057C25.2725 31.9819 25.1392 32.0961 25.0278 32.2485C24.9165 32.4008 24.8301 32.5869 24.7686 32.8066C24.707 33.0263 24.6763 33.2797 24.6763 33.5668V33.7514C24.6763 33.977 24.707 34.1894 24.7686 34.3886C24.833 34.5849 24.9253 34.7578 25.0454 34.9072C25.1685 35.0566 25.3164 35.1738 25.4893 35.2587C25.665 35.3437 25.8643 35.3862 26.0869 35.3862C26.374 35.3862 26.6172 35.3276 26.8164 35.2104C27.0156 35.0932 27.1899 34.9365 27.3394 34.7402L27.8315 35.1313C27.729 35.2866 27.5986 35.4345 27.4404 35.5751C27.2822 35.7158 27.0874 35.83 26.856 35.9179C26.6274 36.0058 26.3564 36.0497 26.043 36.0497Z" fill="url(#paint1_linear_218_129)"/>
<defs>
<linearGradient id="paint0_linear_218_129" x1="0.581818" y1="26.8809" x2="33.0074" y2="24.8465" gradientUnits="userSpaceOnUse">
<stop stop-color="#FF986D"/>
<stop offset="1" stop-color="#F77766"/>
</linearGradient>
<linearGradient id="paint1_linear_218_129" x1="4.45455" y1="36.9619" x2="29.4528" y2="33.6682" gradientUnits="userSpaceOnUse">
<stop stop-color="#FF986D"/>
<stop offset="1" stop-color="#F77766"/>
</linearGradient>
</defs>
</svg>
