<svg width="32" height="37" viewBox="0 0 32 37" fill="none" xmlns="http://www.w3.org/2000/svg">
<path d="M12.8 26.88V17.3929H19.2V26.88H27.2V14.2306H32L16 0L0 14.2306H4.8V26.88H12.8Z" fill="#FFFFFC"/>
<path d="M8.92188 32.3135V33.0034H5.45898V32.3135H8.92188ZM5.59082 29.5625V35.9609H4.74268V29.5625H5.59082ZM9.66016 29.5625V35.9609H8.81641V29.5625H9.66016ZM10.8291 33.6362V33.5352C10.8291 33.1924 10.8789 32.8745 10.9785 32.5815C11.0781 32.2856 11.2217 32.0293 11.4092 31.8125C11.5967 31.5928 11.8237 31.4229 12.0903 31.3027C12.3569 31.1797 12.6558 31.1182 12.9868 31.1182C13.3208 31.1182 13.6211 31.1797 13.8877 31.3027C14.1572 31.4229 14.3857 31.5928 14.5732 31.8125C14.7637 32.0293 14.9087 32.2856 15.0083 32.5815C15.1079 32.8745 15.1577 33.1924 15.1577 33.5352V33.6362C15.1577 33.979 15.1079 34.2969 15.0083 34.5898C14.9087 34.8828 14.7637 35.1392 14.5732 35.3589C14.3857 35.5757 14.1587 35.7456 13.8921 35.8687C13.6284 35.9888 13.3296 36.0488 12.9956 36.0488C12.6616 36.0488 12.3613 35.9888 12.0947 35.8687C11.8281 35.7456 11.5996 35.5757 11.4092 35.3589C11.2217 35.1392 11.0781 34.8828 10.9785 34.5898C10.8789 34.2969 10.8291 33.979 10.8291 33.6362ZM11.6421 33.5352V33.6362C11.6421 33.8735 11.6699 34.0977 11.7256 34.3086C11.7812 34.5166 11.8647 34.7012 11.9761 34.8623C12.0903 35.0234 12.2324 35.1509 12.4023 35.2446C12.5723 35.3354 12.77 35.3809 12.9956 35.3809C13.2183 35.3809 13.4131 35.3354 13.5801 35.2446C13.75 35.1509 13.8906 35.0234 14.002 34.8623C14.1133 34.7012 14.1968 34.5166 14.2524 34.3086C14.311 34.0977 14.3403 33.8735 14.3403 33.6362V33.5352C14.3403 33.3008 14.311 33.0796 14.2524 32.8716C14.1968 32.6606 14.1118 32.4746 13.9976 32.3135C13.8862 32.1494 13.7456 32.0205 13.5757 31.9268C13.4087 31.833 13.2124 31.7861 12.9868 31.7861C12.7642 31.7861 12.5679 31.833 12.3979 31.9268C12.231 32.0205 12.0903 32.1494 11.9761 32.3135C11.8647 32.4746 11.7812 32.6606 11.7256 32.8716C11.6699 33.0796 11.6421 33.3008 11.6421 33.5352ZM16.9858 32.1509V35.9609H16.1685V31.2061H16.9419L16.9858 32.1509ZM16.8188 33.4033L16.4409 33.3901C16.4438 33.0649 16.4863 32.7646 16.5684 32.4893C16.6504 32.2109 16.772 31.9692 16.9331 31.7642C17.0942 31.5591 17.2949 31.4009 17.5352 31.2896C17.7754 31.1753 18.0537 31.1182 18.3701 31.1182C18.5928 31.1182 18.7979 31.1504 18.9854 31.2148C19.1729 31.2764 19.3354 31.3745 19.4731 31.5093C19.6108 31.644 19.7178 31.8169 19.7939 32.0278C19.8701 32.2388 19.9082 32.4937 19.9082 32.7925V35.9609H19.0952V32.832C19.0952 32.583 19.0527 32.3838 18.9678 32.2344C18.8857 32.085 18.7686 31.9766 18.6162 31.9092C18.4639 31.8389 18.2852 31.8037 18.0801 31.8037C17.8398 31.8037 17.6392 31.8462 17.478 31.9312C17.3169 32.0161 17.188 32.1333 17.0913 32.2827C16.9946 32.4321 16.9243 32.6035 16.8804 32.7969C16.8394 32.9873 16.8188 33.1895 16.8188 33.4033ZM19.8994 32.9551L19.3545 33.1221C19.3574 32.8613 19.3999 32.6108 19.4819 32.3706C19.5669 32.1304 19.6885 31.9165 19.8467 31.729C20.0078 31.5415 20.2056 31.3936 20.4399 31.2852C20.6743 31.1738 20.9424 31.1182 21.2441 31.1182C21.499 31.1182 21.7246 31.1519 21.9209 31.2192C22.1201 31.2866 22.2871 31.3906 22.4219 31.5312C22.5596 31.6689 22.6636 31.8462 22.7339 32.063C22.8042 32.2798 22.8394 32.5376 22.8394 32.8364V35.9609H22.022V32.8276C22.022 32.561 21.9795 32.3545 21.8945 32.208C21.8125 32.0586 21.6953 31.9546 21.543 31.896C21.3936 31.8345 21.2148 31.8037 21.0068 31.8037C20.8281 31.8037 20.6699 31.8345 20.5322 31.896C20.3945 31.9575 20.2788 32.0425 20.1851 32.1509C20.0913 32.2563 20.0195 32.3779 19.9697 32.5156C19.9229 32.6533 19.8994 32.7998 19.8994 32.9551ZM26.043 36.0488C25.7119 36.0488 25.4116 35.9932 25.1421 35.8818C24.8755 35.7676 24.6455 35.6079 24.4521 35.4028C24.2617 35.1978 24.1152 34.9546 24.0127 34.6733C23.9102 34.3921 23.8589 34.0845 23.8589 33.7505V33.5659C23.8589 33.1792 23.916 32.835 24.0303 32.5332C24.1445 32.2285 24.2998 31.9707 24.4961 31.7598C24.6924 31.5488 24.915 31.3892 25.1641 31.2808C25.4131 31.1724 25.6709 31.1182 25.9375 31.1182C26.2773 31.1182 26.5703 31.1768 26.8164 31.2939C27.0654 31.4111 27.269 31.5752 27.4272 31.7861C27.5854 31.9941 27.7026 32.2402 27.7788 32.5244C27.855 32.8057 27.8931 33.1133 27.8931 33.4473V33.812H24.3423V33.1484H27.0801V33.0869C27.0684 32.876 27.0244 32.6709 26.9482 32.4717C26.875 32.2725 26.7578 32.1084 26.5967 31.9795C26.4355 31.8506 26.2158 31.7861 25.9375 31.7861C25.7529 31.7861 25.583 31.8257 25.4277 31.9048C25.2725 31.981 25.1392 32.0952 25.0278 32.2476C24.9165 32.3999 24.8301 32.5859 24.7686 32.8057C24.707 33.0254 24.6763 33.2788 24.6763 33.5659V33.7505C24.6763 33.9761 24.707 34.1885 24.7686 34.3877C24.833 34.584 24.9253 34.7568 25.0454 34.9062C25.1685 35.0557 25.3164 35.1729 25.4893 35.2578C25.665 35.3428 25.8643 35.3853 26.0869 35.3853C26.374 35.3853 26.6172 35.3267 26.8164 35.2095C27.0156 35.0923 27.1899 34.9355 27.3394 34.7393L27.8315 35.1304C27.729 35.2856 27.5986 35.4336 27.4404 35.5742C27.2822 35.7148 27.0874 35.8291 26.856 35.917C26.6274 36.0049 26.3564 36.0488 26.043 36.0488Z" fill="#FFFFFC"/>
</svg>
