<svg width="27" height="37" viewBox="0 0 27 37" fill="none" xmlns="http://www.w3.org/2000/svg">
<path d="M3.10254 31.4123H1.39307V30.7224H3.10254C3.43359 30.7224 3.70166 30.6696 3.90674 30.5641C4.11182 30.4587 4.26123 30.3122 4.35498 30.1247C4.45166 29.9372 4.5 29.7233 4.5 29.4831C4.5 29.2634 4.45166 29.0568 4.35498 28.8635C4.26123 28.6701 4.11182 28.5148 3.90674 28.3976C3.70166 28.2775 3.43359 28.2175 3.10254 28.2175H1.59082V33.9216H0.742676V27.5231H3.10254C3.58594 27.5231 3.99463 27.6066 4.32861 27.7736C4.6626 27.9406 4.91602 28.1721 5.08887 28.468C5.26172 28.7609 5.34814 29.0964 5.34814 29.4743C5.34814 29.8845 5.26172 30.2346 5.08887 30.5246C4.91602 30.8146 4.6626 31.0358 4.32861 31.1882C3.99463 31.3376 3.58594 31.4123 3.10254 31.4123ZM7.11035 29.9138V33.9216H6.29736V29.1667H7.08838L7.11035 29.9138ZM8.5957 29.1403L8.59131 29.8962C8.52393 29.8815 8.45947 29.8727 8.39795 29.8698C8.33936 29.864 8.27197 29.861 8.1958 29.861C8.0083 29.861 7.84277 29.8903 7.69922 29.9489C7.55566 30.0075 7.43408 30.0895 7.33447 30.195C7.23486 30.3005 7.15576 30.4265 7.09717 30.5729C7.0415 30.7165 7.00488 30.8747 6.9873 31.0475L6.75879 31.1794C6.75879 30.8923 6.78662 30.6227 6.84229 30.3708C6.90088 30.1188 6.99023 29.8962 7.11035 29.7028C7.23047 29.5065 7.38281 29.3542 7.56738 29.2458C7.75488 29.1345 7.97754 29.0788 8.23535 29.0788C8.29395 29.0788 8.36133 29.0861 8.4375 29.1008C8.51367 29.1125 8.56641 29.1257 8.5957 29.1403ZM9.04395 31.5969V31.4958C9.04395 31.153 9.09375 30.8351 9.19336 30.5422C9.29297 30.2463 9.43652 29.9899 9.62402 29.7731C9.81152 29.5534 10.0386 29.3835 10.3052 29.2634C10.5718 29.1403 10.8706 29.0788 11.2017 29.0788C11.5356 29.0788 11.8359 29.1403 12.1025 29.2634C12.3721 29.3835 12.6006 29.5534 12.7881 29.7731C12.9785 29.9899 13.1235 30.2463 13.2231 30.5422C13.3228 30.8351 13.3726 31.153 13.3726 31.4958V31.5969C13.3726 31.9396 13.3228 32.2575 13.2231 32.5505C13.1235 32.8434 12.9785 33.0998 12.7881 33.3195C12.6006 33.5363 12.3735 33.7062 12.1069 33.8293C11.8433 33.9494 11.5444 34.0095 11.2104 34.0095C10.8765 34.0095 10.5762 33.9494 10.3096 33.8293C10.043 33.7062 9.81445 33.5363 9.62402 33.3195C9.43652 33.0998 9.29297 32.8434 9.19336 32.5505C9.09375 32.2575 9.04395 31.9396 9.04395 31.5969ZM9.85693 31.4958V31.5969C9.85693 31.8342 9.88477 32.0583 9.94043 32.2692C9.99609 32.4772 10.0796 32.6618 10.1909 32.8229C10.3052 32.9841 10.4473 33.1115 10.6172 33.2053C10.7871 33.2961 10.9849 33.3415 11.2104 33.3415C11.4331 33.3415 11.6279 33.2961 11.7949 33.2053C11.9648 33.1115 12.1055 32.9841 12.2168 32.8229C12.3281 32.6618 12.4116 32.4772 12.4673 32.2692C12.5259 32.0583 12.5552 31.8342 12.5552 31.5969V31.4958C12.5552 31.2614 12.5259 31.0402 12.4673 30.8322C12.4116 30.6213 12.3267 30.4352 12.2124 30.2741C12.1011 30.11 11.9604 29.9811 11.7905 29.8874C11.6235 29.7936 11.4272 29.7468 11.2017 29.7468C10.979 29.7468 10.7827 29.7936 10.6128 29.8874C10.4458 29.9811 10.3052 30.11 10.1909 30.2741C10.0796 30.4352 9.99609 30.6213 9.94043 30.8322C9.88477 31.0402 9.85693 31.2614 9.85693 31.4958ZM15.4775 33.9216H14.6646V28.7536C14.6646 28.3932 14.7349 28.0886 14.8755 27.8395C15.0161 27.5905 15.2168 27.4016 15.4775 27.2726C15.7383 27.1437 16.0474 27.0793 16.4048 27.0793C16.6157 27.0793 16.8223 27.1057 17.0244 27.1584C17.2266 27.2082 17.4346 27.2712 17.6484 27.3474L17.5122 28.0329C17.3774 27.9802 17.2207 27.9304 17.042 27.8835C16.8662 27.8337 16.6729 27.8088 16.4619 27.8088C16.1133 27.8088 15.8613 27.8879 15.7061 28.0461C15.5537 28.2014 15.4775 28.4372 15.4775 28.7536V33.9216ZM16.4487 29.1667V29.7907H13.9131V29.1667H16.4487ZM18.0483 29.1667V33.9216H17.2354V29.1667H18.0483ZM20.2676 27.1716V33.9216H19.4502V27.1716H20.2676ZM23.5459 34.0095C23.2148 34.0095 22.9146 33.9538 22.645 33.8425C22.3784 33.7282 22.1484 33.5685 21.9551 33.3635C21.7646 33.1584 21.6182 32.9152 21.5156 32.634C21.4131 32.3527 21.3618 32.0451 21.3618 31.7111V31.5266C21.3618 31.1398 21.4189 30.7956 21.5332 30.4938C21.6475 30.1891 21.8027 29.9313 21.999 29.7204C22.1953 29.5095 22.418 29.3498 22.667 29.2414C22.916 29.133 23.1738 29.0788 23.4404 29.0788C23.7803 29.0788 24.0732 29.1374 24.3193 29.2546C24.5684 29.3718 24.772 29.5358 24.9302 29.7468C25.0884 29.9548 25.2056 30.2009 25.2817 30.485C25.3579 30.7663 25.396 31.0739 25.396 31.4079V31.7726H21.8452V31.1091H24.583V31.0475C24.5713 30.8366 24.5273 30.6315 24.4512 30.4323C24.3779 30.2331 24.2607 30.069 24.0996 29.9401C23.9385 29.8112 23.7188 29.7468 23.4404 29.7468C23.2559 29.7468 23.0859 29.7863 22.9307 29.8654C22.7754 29.9416 22.6421 30.0558 22.5308 30.2082C22.4194 30.3605 22.333 30.5466 22.2715 30.7663C22.21 30.986 22.1792 31.2394 22.1792 31.5266V31.7111C22.1792 31.9367 22.21 32.1491 22.2715 32.3483C22.3359 32.5446 22.4282 32.7175 22.5483 32.8669C22.6714 33.0163 22.8193 33.1335 22.9922 33.2184C23.168 33.3034 23.3672 33.3459 23.5898 33.3459C23.877 33.3459 24.1201 33.2873 24.3193 33.1701C24.5186 33.0529 24.6929 32.8962 24.8423 32.6999L25.3345 33.091C25.2319 33.2463 25.1016 33.3942 24.9434 33.5349C24.7852 33.6755 24.5903 33.7897 24.3589 33.8776C24.1304 33.9655 23.8594 34.0095 23.5459 34.0095Z" fill="#FFFFFC"/>
<path fill-rule="evenodd" clip-rule="evenodd" d="M13.5001 23.6737C19.6941 23.6737 24.7155 18.653 24.7155 12.4599C24.7155 6.26669 19.6941 1.24599 13.5001 1.24599C7.3061 1.24599 2.28473 6.26669 2.28473 12.4599C2.28473 18.653 7.3061 23.6737 13.5001 23.6737ZM13.5001 24.9197C20.3826 24.9197 25.9617 19.3414 25.9617 12.4599C25.9617 5.57828 20.3826 0 13.5001 0C6.61761 0 1.03857 5.57828 1.03857 12.4599C1.03857 19.3414 6.61761 24.9197 13.5001 24.9197Z" fill="#FFFFFC"/>
<path d="M6.02319 19.706C6.02319 19.0624 6.50421 18.5185 7.14473 18.4475C11.9518 17.9155 15.0703 17.9634 19.8667 18.4593C20.1062 18.4845 20.3332 18.5788 20.52 18.7309C20.7068 18.8829 20.8452 19.086 20.9185 19.3154C20.9917 19.5448 20.9965 19.7906 20.9323 20.0227C20.8681 20.2548 20.7378 20.4632 20.5571 20.6224C14.8964 25.5559 11.6614 25.488 6.42196 20.6274C6.1665 20.3906 6.02319 20.0542 6.02319 19.7066V19.706Z" fill="#FFFFFC"/>
<path fill-rule="evenodd" clip-rule="evenodd" d="M19.8026 19.0812C15.0441 18.5891 11.9705 18.543 7.21268 19.0694C7.05607 19.0876 6.91169 19.163 6.80718 19.2811C6.70268 19.3991 6.6454 19.5516 6.6463 19.7092C6.6463 19.8874 6.72045 20.0562 6.84569 20.1733C9.44267 22.5818 11.4103 23.6702 13.3338 23.6771C15.2641 23.6839 17.3377 22.6043 20.1478 20.1559C20.237 20.0765 20.3013 19.9728 20.3327 19.8575C20.3642 19.7422 20.3615 19.6203 20.3249 19.5065C20.2883 19.3927 20.2195 19.292 20.1268 19.2167C20.0341 19.1413 19.9214 19.0944 19.8026 19.0819V19.0812ZM7.07623 17.8309C11.9337 17.2932 15.0977 17.3418 19.9315 17.8421C20.2919 17.8797 20.6334 18.0215 20.9144 18.2502C21.1953 18.4789 21.4035 18.7846 21.5134 19.1298C21.6233 19.4749 21.6301 19.8446 21.5331 20.1936C21.4361 20.5427 21.2394 20.8558 20.9671 21.0948C18.1165 23.5792 15.7426 24.9324 13.33 24.923C10.9106 24.9143 8.6414 23.5381 5.99893 21.0867C5.80973 20.9105 5.65891 20.6971 5.55588 20.46C5.45286 20.2229 5.39984 19.9671 5.40015 19.7086C5.39924 19.2441 5.56975 18.7956 5.87902 18.449C6.1883 18.1024 6.61458 17.8821 7.07623 17.8303V17.8309Z" fill="#FFFFFC"/>
<path d="M18.4846 9.96936C18.4846 11.2912 17.9594 12.5589 17.0247 13.4935C16.0899 14.4282 14.822 14.9533 13.5 14.9533C12.178 14.9533 10.9101 14.4282 9.97534 13.4935C9.04054 12.5589 8.51538 11.2912 8.51538 9.96936C8.51538 8.64753 9.04054 7.37985 9.97534 6.44518C10.9101 5.5105 12.178 4.98541 13.5 4.98541C14.822 4.98541 16.0899 5.5105 17.0247 6.44518C17.9594 7.37985 18.4846 8.64753 18.4846 9.96936V9.96936Z" fill="#FFFFFC"/>
<path fill-rule="evenodd" clip-rule="evenodd" d="M13.5 13.7073C14.4915 13.7073 15.4424 13.3135 16.1435 12.6125C16.8446 11.9115 17.2385 10.9607 17.2385 9.96936C17.2385 8.97799 16.8446 8.02722 16.1435 7.32622C15.4424 6.62522 14.4915 6.2314 13.5 6.2314C12.5085 6.2314 11.5576 6.62522 10.8565 7.32622C10.1554 8.02722 9.76153 8.97799 9.76153 9.96936C9.76153 10.9607 10.1554 11.9115 10.8565 12.6125C11.5576 13.3135 12.5085 13.7073 13.5 13.7073V13.7073ZM13.5 14.9533C14.822 14.9533 16.0899 14.4282 17.0247 13.4935C17.9594 12.5589 18.4846 11.2912 18.4846 9.96936C18.4846 8.64753 17.9594 7.37985 17.0247 6.44518C16.0899 5.5105 14.822 4.98541 13.5 4.98541C12.178 4.98541 10.9101 5.5105 9.97534 6.44518C9.04054 7.37985 8.51538 8.64753 8.51538 9.96936C8.51538 11.2912 9.04054 12.5589 9.97534 13.4935C10.9101 14.4282 12.178 14.9533 13.5 14.9533V14.9533Z" fill="#FFFFFC"/>
</svg>
