<svg width="27" height="37" viewBox="0 0 27 37" fill="none" xmlns="http://www.w3.org/2000/svg">
<path d="M3.10254 31.4114H1.39307V30.7214H3.10254C3.43359 30.7214 3.70166 30.6687 3.90674 30.5632C4.11182 30.4578 4.26123 30.3113 4.35498 30.1238C4.45166 29.9363 4.5 29.7224 4.5 29.4822C4.5 29.2625 4.45166 29.0559 4.35498 28.8625C4.26123 28.6692 4.11182 28.5139 3.90674 28.3967C3.70166 28.2766 3.43359 28.2166 3.10254 28.2166H1.59082V33.9207H0.742676V27.5222H3.10254C3.58594 27.5222 3.99463 27.6057 4.32861 27.7727C4.6626 27.9397 4.91602 28.1711 5.08887 28.467C5.26172 28.76 5.34814 29.0955 5.34814 29.4734C5.34814 29.8835 5.26172 30.2336 5.08887 30.5237C4.91602 30.8137 4.6626 31.0349 4.32861 31.1873C3.99463 31.3367 3.58594 31.4114 3.10254 31.4114ZM7.11035 29.9128V33.9207H6.29736V29.1658H7.08838L7.11035 29.9128ZM8.5957 29.1394L8.59131 29.8953C8.52393 29.8806 8.45947 29.8718 8.39795 29.8689C8.33936 29.863 8.27197 29.8601 8.1958 29.8601C8.0083 29.8601 7.84277 29.8894 7.69922 29.948C7.55566 30.0066 7.43408 30.0886 7.33447 30.1941C7.23486 30.2996 7.15576 30.4255 7.09717 30.572C7.0415 30.7156 7.00488 30.8738 6.9873 31.0466L6.75879 31.1785C6.75879 30.8914 6.78662 30.6218 6.84229 30.3699C6.90088 30.1179 6.99023 29.8953 7.11035 29.7019C7.23047 29.5056 7.38281 29.3533 7.56738 29.2449C7.75488 29.1335 7.97754 29.0779 8.23535 29.0779C8.29395 29.0779 8.36133 29.0852 8.4375 29.0999C8.51367 29.1116 8.56641 29.1248 8.5957 29.1394ZM9.04395 31.5959V31.4949C9.04395 31.1521 9.09375 30.8342 9.19336 30.5413C9.29297 30.2454 9.43652 29.989 9.62402 29.7722C9.81152 29.5525 10.0386 29.3826 10.3052 29.2625C10.5718 29.1394 10.8706 29.0779 11.2017 29.0779C11.5356 29.0779 11.8359 29.1394 12.1025 29.2625C12.3721 29.3826 12.6006 29.5525 12.7881 29.7722C12.9785 29.989 13.1235 30.2454 13.2231 30.5413C13.3228 30.8342 13.3726 31.1521 13.3726 31.4949V31.5959C13.3726 31.9387 13.3228 32.2566 13.2231 32.5496C13.1235 32.8425 12.9785 33.0989 12.7881 33.3186C12.6006 33.5354 12.3735 33.7053 12.1069 33.8284C11.8433 33.9485 11.5444 34.0085 11.2104 34.0085C10.8765 34.0085 10.5762 33.9485 10.3096 33.8284C10.043 33.7053 9.81445 33.5354 9.62402 33.3186C9.43652 33.0989 9.29297 32.8425 9.19336 32.5496C9.09375 32.2566 9.04395 31.9387 9.04395 31.5959ZM9.85693 31.4949V31.5959C9.85693 31.8333 9.88477 32.0574 9.94043 32.2683C9.99609 32.4763 10.0796 32.6609 10.1909 32.822C10.3052 32.9832 10.4473 33.1106 10.6172 33.2043C10.7871 33.2952 10.9849 33.3406 11.2104 33.3406C11.4331 33.3406 11.6279 33.2952 11.7949 33.2043C11.9648 33.1106 12.1055 32.9832 12.2168 32.822C12.3281 32.6609 12.4116 32.4763 12.4673 32.2683C12.5259 32.0574 12.5552 31.8333 12.5552 31.5959V31.4949C12.5552 31.2605 12.5259 31.0393 12.4673 30.8313C12.4116 30.6204 12.3267 30.4343 12.2124 30.2732C12.1011 30.1091 11.9604 29.9802 11.7905 29.8865C11.6235 29.7927 11.4272 29.7458 11.2017 29.7458C10.979 29.7458 10.7827 29.7927 10.6128 29.8865C10.4458 29.9802 10.3052 30.1091 10.1909 30.2732C10.0796 30.4343 9.99609 30.6204 9.94043 30.8313C9.88477 31.0393 9.85693 31.2605 9.85693 31.4949ZM15.4775 33.9207H14.6646V28.7527C14.6646 28.3923 14.7349 28.0876 14.8755 27.8386C15.0161 27.5896 15.2168 27.4006 15.4775 27.2717C15.7383 27.1428 16.0474 27.0784 16.4048 27.0784C16.6157 27.0784 16.8223 27.1047 17.0244 27.1575C17.2266 27.2073 17.4346 27.2703 17.6484 27.3464L17.5122 28.032C17.3774 27.9792 17.2207 27.9294 17.042 27.8826C16.8662 27.8328 16.6729 27.8079 16.4619 27.8079C16.1133 27.8079 15.8613 27.887 15.7061 28.0452C15.5537 28.2004 15.4775 28.4363 15.4775 28.7527V33.9207ZM16.4487 29.1658V29.7898H13.9131V29.1658H16.4487ZM18.0483 29.1658V33.9207H17.2354V29.1658H18.0483ZM20.2676 27.1707V33.9207H19.4502V27.1707H20.2676ZM23.5459 34.0085C23.2148 34.0085 22.9146 33.9529 22.645 33.8416C22.3784 33.7273 22.1484 33.5676 21.9551 33.3625C21.7646 33.1575 21.6182 32.9143 21.5156 32.6331C21.4131 32.3518 21.3618 32.0442 21.3618 31.7102V31.5256C21.3618 31.1389 21.4189 30.7947 21.5332 30.4929C21.6475 30.1882 21.8027 29.9304 21.999 29.7195C22.1953 29.5085 22.418 29.3489 22.667 29.2405C22.916 29.1321 23.1738 29.0779 23.4404 29.0779C23.7803 29.0779 24.0732 29.1365 24.3193 29.2537C24.5684 29.3708 24.772 29.5349 24.9302 29.7458C25.0884 29.9539 25.2056 30.2 25.2817 30.4841C25.3579 30.7654 25.396 31.073 25.396 31.407V31.7717H21.8452V31.1082H24.583V31.0466C24.5713 30.8357 24.5273 30.6306 24.4512 30.4314C24.3779 30.2322 24.2607 30.0681 24.0996 29.9392C23.9385 29.8103 23.7188 29.7458 23.4404 29.7458C23.2559 29.7458 23.0859 29.7854 22.9307 29.8645C22.7754 29.9407 22.6421 30.0549 22.5308 30.2073C22.4194 30.3596 22.333 30.5457 22.2715 30.7654C22.21 30.9851 22.1792 31.2385 22.1792 31.5256V31.7102C22.1792 31.9358 22.21 32.1482 22.2715 32.3474C22.3359 32.5437 22.4282 32.7166 22.5483 32.866C22.6714 33.0154 22.8193 33.1326 22.9922 33.2175C23.168 33.3025 23.3672 33.345 23.5898 33.345C23.877 33.345 24.1201 33.2864 24.3193 33.1692C24.5186 33.052 24.6929 32.8953 24.8423 32.699L25.3345 33.0901C25.2319 33.2454 25.1016 33.3933 24.9434 33.5339C24.7852 33.6746 24.5903 33.7888 24.3589 33.8767C24.1304 33.9646 23.8594 34.0085 23.5459 34.0085Z" fill="url(#paint0_linear_218_1027)"/>
<path fill-rule="evenodd" clip-rule="evenodd" d="M13.5001 23.6728C19.6941 23.6728 24.7155 18.6521 24.7155 12.4589C24.7155 6.26577 19.6941 1.24507 13.5001 1.24507C7.3061 1.24507 2.28473 6.26577 2.28473 12.4589C2.28473 18.6521 7.3061 23.6728 13.5001 23.6728ZM13.5001 24.9188C20.3826 24.9188 25.9617 19.3405 25.9617 12.4589C25.9617 5.57736 20.3826 -0.000915527 13.5001 -0.000915527C6.61761 -0.000915527 1.03857 5.57736 1.03857 12.4589C1.03857 19.3405 6.61761 24.9188 13.5001 24.9188Z" fill="url(#paint1_linear_218_1027)"/>
<path d="M6.02319 19.705C6.02319 19.0615 6.50421 18.5176 7.14473 18.4466C11.9518 17.9146 15.0703 17.9625 19.8667 18.4584C20.1062 18.4836 20.3332 18.5779 20.52 18.73C20.7068 18.882 20.8452 19.0851 20.9185 19.3145C20.9917 19.5439 20.9965 19.7897 20.9323 20.0218C20.8681 20.2539 20.7378 20.4622 20.5571 20.6215C14.8964 25.5549 11.6614 25.487 6.42196 20.6264C6.1665 20.3897 6.02319 20.0533 6.02319 19.7057V19.705Z" fill="url(#paint2_linear_218_1027)"/>
<path fill-rule="evenodd" clip-rule="evenodd" d="M19.8026 19.0803C15.0441 18.5882 11.9705 18.5421 7.21268 19.0685C7.05607 19.0867 6.91169 19.1621 6.80718 19.2802C6.70268 19.3982 6.6454 19.5506 6.6463 19.7083C6.6463 19.8865 6.72045 20.0553 6.84569 20.1724C9.44267 22.5809 11.4103 23.6693 13.3338 23.6761C15.2641 23.683 17.3377 22.6033 20.1478 20.155C20.237 20.0755 20.3013 19.9719 20.3327 19.8566C20.3642 19.7413 20.3615 19.6194 20.3249 19.5056C20.2883 19.3918 20.2195 19.2911 20.1268 19.2157C20.0341 19.1404 19.9214 19.0935 19.8026 19.0809V19.0803ZM7.07623 17.83C11.9337 17.2923 15.0977 17.3409 19.9315 17.8412C20.2919 17.8788 20.6334 18.0206 20.9144 18.2493C21.1953 18.478 21.4035 18.7837 21.5134 19.1288C21.6233 19.474 21.6301 19.8437 21.5331 20.1927C21.4361 20.5417 21.2394 20.8549 20.9671 21.0938C18.1165 23.5783 15.7426 24.9315 13.33 24.9221C10.9106 24.9134 8.6414 23.5372 5.99893 21.0857C5.80973 20.9095 5.65891 20.6962 5.55588 20.4591C5.45286 20.222 5.39984 19.9662 5.40015 19.7077C5.39924 19.2432 5.56975 18.7947 5.87902 18.4481C6.1883 18.1015 6.61458 17.8812 7.07623 17.8294V17.83Z" fill="url(#paint3_linear_218_1027)"/>
<path d="M18.4846 9.96844C18.4846 11.2903 17.9594 12.5579 17.0247 13.4926C16.0899 14.4273 14.822 14.9524 13.5 14.9524C12.178 14.9524 10.9101 14.4273 9.97534 13.4926C9.04054 12.5579 8.51538 11.2903 8.51538 9.96844C8.51538 8.64662 9.04054 7.37893 9.97534 6.44426C10.9101 5.50959 12.178 4.9845 13.5 4.9845C14.822 4.9845 16.0899 5.50959 17.0247 6.44426C17.9594 7.37893 18.4846 8.64662 18.4846 9.96844V9.96844Z" fill="url(#paint4_linear_218_1027)"/>
<path fill-rule="evenodd" clip-rule="evenodd" d="M13.5 13.7064C14.4915 13.7064 15.4424 13.3126 16.1435 12.6116C16.8446 11.9106 17.2385 10.9598 17.2385 9.96844C17.2385 8.97707 16.8446 8.02631 16.1435 7.32531C15.4424 6.6243 14.4915 6.23048 13.5 6.23048C12.5085 6.23048 11.5576 6.6243 10.8565 7.32531C10.1554 8.02631 9.76153 8.97707 9.76153 9.96844C9.76153 10.9598 10.1554 11.9106 10.8565 12.6116C11.5576 13.3126 12.5085 13.7064 13.5 13.7064V13.7064ZM13.5 14.9524C14.822 14.9524 16.0899 14.4273 17.0247 13.4926C17.9594 12.5579 18.4846 11.2903 18.4846 9.96844C18.4846 8.64662 17.9594 7.37893 17.0247 6.44426C16.0899 5.50959 14.822 4.9845 13.5 4.9845C12.178 4.9845 10.9101 5.50959 9.97534 6.44426C9.04054 7.37893 8.51538 8.64662 8.51538 9.96844C8.51538 11.2903 9.04054 12.5579 9.97534 13.4926C10.9101 14.4273 12.178 14.9524 13.5 14.9524V14.9524Z" fill="url(#paint5_linear_218_1027)"/>
<defs>
<linearGradient id="paint0_linear_218_1027" x1="0.490909" y1="36.3437" x2="27.538" y2="32.9745" gradientUnits="userSpaceOnUse">
<stop stop-color="#FF986D"/>
<stop offset="1" stop-color="#F77766"/>
</linearGradient>
<linearGradient id="paint1_linear_218_1027" x1="1.49172" y1="24.9188" x2="26.7754" y2="23.5861" gradientUnits="userSpaceOnUse">
<stop stop-color="#FF986D"/>
<stop offset="1" stop-color="#F77766"/>
</linearGradient>
<linearGradient id="paint2_linear_218_1027" x1="6.29508" y1="24.2968" x2="21.268" y2="22.4027" gradientUnits="userSpaceOnUse">
<stop stop-color="#FF986D"/>
<stop offset="1" stop-color="#F77766"/>
</linearGradient>
<linearGradient id="paint3_linear_218_1027" x1="5.69471" y1="24.9222" x2="21.9636" y2="23.0641" gradientUnits="userSpaceOnUse">
<stop stop-color="#FF986D"/>
<stop offset="1" stop-color="#F77766"/>
</linearGradient>
<linearGradient id="paint4_linear_218_1027" x1="8.69664" y1="14.9524" x2="18.8101" y2="14.4193" gradientUnits="userSpaceOnUse">
<stop stop-color="#FF986D"/>
<stop offset="1" stop-color="#F77766"/>
</linearGradient>
<linearGradient id="paint5_linear_218_1027" x1="8.69664" y1="14.9524" x2="18.8101" y2="14.4193" gradientUnits="userSpaceOnUse">
<stop stop-color="#FF986D"/>
<stop offset="1" stop-color="#F77766"/>
</linearGradient>
</defs>
</svg>
