<svg width="95" height="18" viewBox="0 0 95 18" fill="none" xmlns="http://www.w3.org/2000/svg">
<path d="M9.16067 0.145004L11.106 5.9769H17.4014L12.3083 9.58121L14.2537 15.4131L9.16067 11.8088L4.06762 15.4131L6.01299 9.58121L0.919936 5.9769H7.2153L9.16067 0.145004Z" fill="#FFE601"/>
<path d="M27.3365 10.4311C27.3365 11.0509 27.2158 11.5727 26.9742 11.9966C26.7373 12.4204 26.4091 12.7417 25.9899 12.9604C25.5752 13.1746 25.1058 13.2817 24.5817 13.2817C24.053 13.2817 23.5791 13.1746 23.1598 12.9604C22.7451 12.7417 22.4147 12.4204 22.1686 11.9966C21.927 11.5682 21.8063 11.0464 21.8063 10.4311C21.8063 10.021 21.8746 9.64728 22.0114 9.31004C22.1481 8.9728 22.3395 8.68342 22.5856 8.44188C22.8317 8.19579 23.1233 8.00666 23.4606 7.8745C23.7978 7.74234 24.167 7.67625 24.568 7.67625C25.1012 7.67625 25.5752 7.79247 25.9899 8.02489C26.4091 8.25731 26.7373 8.58088 26.9742 8.99559C27.2158 9.40575 27.3365 9.88426 27.3365 10.4311ZM25.7506 10.3423C25.7506 10.0141 25.7005 9.72704 25.6002 9.48094C25.5045 9.23029 25.3678 9.03888 25.1901 8.90672C25.0169 8.77 24.8095 8.70164 24.568 8.70164C24.3265 8.70164 24.1168 8.77 23.9391 8.90672C23.7659 9.03888 23.6315 9.23029 23.5358 9.48094C23.4446 9.72704 23.399 10.0141 23.399 10.3423C23.399 10.675 23.4446 10.9621 23.5358 11.2036C23.6315 11.4406 23.7659 11.6229 23.9391 11.7505C24.1168 11.8781 24.331 11.9419 24.5817 11.9419C24.8278 11.9419 25.0374 11.8781 25.2106 11.7505C25.3883 11.6229 25.5227 11.4406 25.6139 11.2036C25.705 10.9621 25.7506 10.675 25.7506 10.3423ZM27.1656 5.81004C27.1656 6.31135 27.054 6.75568 26.8307 7.14305C26.6074 7.53042 26.302 7.83348 25.9147 8.05223C25.5273 8.27098 25.083 8.38036 24.5817 8.38036C24.0758 8.38036 23.6269 8.27098 23.235 8.05223C22.8431 7.83348 22.5354 7.53042 22.3121 7.14305C22.0934 6.75112 21.984 6.30679 21.984 5.81004C21.984 5.2176 22.0934 4.71857 22.3121 4.31297C22.5354 3.90282 22.8431 3.59064 23.235 3.37645C23.6269 3.16226 24.0735 3.05516 24.5748 3.05516C25.0852 3.05516 25.5341 3.16226 25.9215 3.37645C26.3089 3.59064 26.6119 3.90282 26.8307 4.31297C27.054 4.72313 27.1656 5.22215 27.1656 5.81004ZM25.5729 5.87157C25.5729 5.5799 25.5341 5.32469 25.4567 5.10594C25.3792 4.88263 25.2653 4.70946 25.1149 4.58641C24.969 4.45881 24.7913 4.395 24.5817 4.395C24.372 4.395 24.192 4.45425 24.0416 4.57274C23.8958 4.69123 23.7819 4.86213 23.6998 5.08543C23.6178 5.30418 23.5768 5.56623 23.5768 5.87157C23.5768 6.17235 23.6155 6.43439 23.693 6.6577C23.775 6.88101 23.8912 7.05646 24.0416 7.18407C24.192 7.30711 24.372 7.36864 24.5817 7.36864C24.7913 7.36864 24.969 7.30711 25.1149 7.18407C25.2653 7.05646 25.3792 6.88101 25.4567 6.6577C25.5341 6.43439 25.5729 6.17235 25.5729 5.87157ZM28.9977 12.311C28.9977 12.0467 29.082 11.8257 29.2506 11.6479C29.4238 11.4702 29.6608 11.3813 29.9615 11.3813C30.2623 11.3813 30.497 11.4702 30.6656 11.6479C30.8388 11.8257 30.9254 12.0467 30.9254 12.311C30.9254 12.5662 30.8388 12.7827 30.6656 12.9604C30.497 13.1382 30.2623 13.227 29.9615 13.227C29.6608 13.227 29.4238 13.1382 29.2506 12.9604C29.082 12.7827 28.9977 12.5662 28.9977 12.311ZM38.5201 9.57664V10.9165H32.4362L32.3951 9.89793L35.9225 3.19188H37.1871L35.902 5.687L34.0221 9.57664H38.5201ZM37.5563 3.19188V13.145H35.9567V3.19188H37.5563Z" fill="#FFFFFC"/>
<path d="M45.524 7.25562V14.365H44.6256V7.25562H45.524ZM47.3698 7.25562H48.2389L50.0992 13.0515L51.9547 7.25562H52.8239L50.4362 14.365H49.7526L47.3698 7.25562ZM47.0865 7.25562H47.8483L47.9801 11.5916V14.365H47.0865V7.25562ZM52.3405 7.25562H53.1022V14.365H52.2086V11.5916L52.3405 7.25562ZM56.2565 14.365H55.0455L55.0553 13.5984H56.2565C56.6829 13.5984 57.0296 13.517 57.2965 13.3542C57.5634 13.1882 57.7604 12.9441 57.8873 12.6218C58.0143 12.2963 58.0778 11.8943 58.0778 11.4158V10.2C58.0778 9.82235 58.042 9.49683 57.9703 9.22339C57.8987 8.94995 57.7913 8.72534 57.6481 8.54956C57.5048 8.37378 57.3242 8.24357 57.1061 8.15894C56.888 8.07104 56.6324 8.0271 56.3395 8.0271H55.0211V7.25562H56.3395C56.7399 7.25562 57.1012 7.31909 57.4235 7.44604C57.7457 7.56974 58.0224 7.75692 58.2535 8.00757C58.4847 8.25496 58.6604 8.56258 58.7809 8.93042C58.9046 9.29826 58.9664 9.72469 58.9664 10.2097V11.4158C58.9664 11.9008 58.9046 12.3272 58.7809 12.6951C58.6604 13.0629 58.483 13.3705 58.2487 13.6179C58.0143 13.8653 57.7295 14.0525 57.3942 14.1794C57.0621 14.3031 56.6829 14.365 56.2565 14.365ZM55.5436 7.25562V14.365H54.6451V7.25562H55.5436ZM62.5114 11.0398H61.066L61.0563 10.283H62.399C62.6009 10.283 62.7799 10.2374 62.9362 10.1462C63.0924 10.0551 63.2145 9.92489 63.3024 9.75562C63.3935 9.58309 63.4391 9.37801 63.4391 9.14038C63.4391 8.87996 63.4 8.66838 63.3219 8.50562C63.247 8.3396 63.1315 8.21916 62.9752 8.14429C62.8222 8.06616 62.6269 8.0271 62.3893 8.0271H61.2565V14.365H60.358V7.25562H62.3893C62.6953 7.25562 62.9687 7.29305 63.2096 7.36792C63.4505 7.43953 63.6539 7.55347 63.8199 7.70972C63.9892 7.86271 64.1178 8.05802 64.2057 8.29565C64.2936 8.53328 64.3375 8.81812 64.3375 9.15015C64.3375 9.44312 64.2708 9.70841 64.1373 9.94604C64.0071 10.1804 63.8248 10.3725 63.5905 10.5222C63.3561 10.672 63.0859 10.768 62.7799 10.8103L62.5114 11.0398ZM62.4772 14.365H60.6949L61.2174 13.5984H62.4772C62.7115 13.5984 62.9101 13.5463 63.0729 13.4421C63.2356 13.338 63.3593 13.1915 63.444 13.0027C63.5319 12.8106 63.5758 12.5844 63.5758 12.324C63.5758 12.0603 63.54 11.8324 63.4684 11.6404C63.3968 11.4483 63.2828 11.3002 63.1266 11.196C62.9703 11.0919 62.7653 11.0398 62.5114 11.0398H61.3541L61.3639 10.283H62.9264L63.1266 10.5564C63.4196 10.5857 63.6653 10.6833 63.8639 10.8494C64.0657 11.0121 64.2171 11.2205 64.318 11.4744C64.4222 11.7283 64.4742 12.0082 64.4742 12.3142C64.4742 12.7569 64.3912 13.1313 64.2252 13.4373C64.0625 13.74 63.8313 13.9711 63.5319 14.1306C63.2324 14.2869 62.8808 14.365 62.4772 14.365ZM68.859 9.91187V14.365H67.9948V9.08179H68.8297L68.859 9.91187ZM70.1725 9.05249L70.1774 9.89233C70.1058 9.87606 70.0406 9.86629 69.9821 9.86304C69.9267 9.85653 69.8616 9.85327 69.7867 9.85327C69.624 9.85327 69.4808 9.88582 69.3571 9.95093C69.2366 10.016 69.1324 10.1072 69.0446 10.2244C68.9567 10.3416 68.8867 10.4815 68.8346 10.6443C68.7825 10.8038 68.7467 10.9796 68.7272 11.1716L68.5026 11.3181C68.5026 10.9991 68.527 10.6996 68.5758 10.4197C68.6279 10.1397 68.7076 9.89233 68.8151 9.67749C68.9225 9.45939 69.0592 9.29012 69.2252 9.16968C69.3945 9.04598 69.5963 8.98413 69.8307 8.98413C69.8828 8.98413 69.9462 8.99227 70.0211 9.00854C70.0992 9.02157 70.1497 9.03621 70.1725 9.05249ZM73.4342 13.4617V10.5955C73.4342 10.3871 73.4017 10.2195 73.3365 10.0925C73.2747 9.96558 73.1803 9.8728 73.0533 9.81421C72.9296 9.75562 72.7734 9.72632 72.5846 9.72632C72.4023 9.72632 72.2444 9.76375 72.111 9.83862C71.9808 9.91349 71.8798 10.0128 71.8082 10.1365C71.7399 10.2602 71.7057 10.3969 71.7057 10.5466H70.8414C70.8414 10.3578 70.8821 10.1707 70.9635 9.98511C71.0481 9.79956 71.1686 9.63192 71.3248 9.48218C71.4811 9.32918 71.6683 9.20874 71.8864 9.12085C72.1077 9.0297 72.3551 8.98413 72.6285 8.98413C72.9541 8.98413 73.2421 9.03784 73.4928 9.14526C73.7434 9.24943 73.9404 9.42033 74.0836 9.65796C74.2268 9.89559 74.2985 10.2113 74.2985 10.6052V13.2126C74.2985 13.3884 74.3115 13.5756 74.3375 13.7742C74.3668 13.9727 74.4075 14.1436 74.4596 14.2869V14.365H73.566C73.5237 14.2608 73.4912 14.1225 73.4684 13.95C73.4456 13.7742 73.4342 13.6114 73.4342 13.4617ZM73.5709 11.1619L73.5807 11.7966H72.9801C72.775 11.7966 72.5878 11.8194 72.4186 11.865C72.2526 11.9106 72.1093 11.9773 71.9889 12.0652C71.8684 12.1498 71.7757 12.2556 71.7106 12.3826C71.6487 12.5095 71.6178 12.6544 71.6178 12.8171C71.6178 13.0287 71.6471 13.198 71.7057 13.325C71.7643 13.4486 71.8522 13.5382 71.9694 13.5935C72.0865 13.6488 72.2347 13.6765 72.4137 13.6765C72.6318 13.6765 72.8239 13.6261 72.9899 13.5251C73.1559 13.4242 73.2845 13.3022 73.3756 13.1589C73.47 13.0157 73.514 12.8822 73.5074 12.7585L73.6979 13.1638C73.6849 13.2908 73.6425 13.4291 73.5709 13.5789C73.5026 13.7253 73.4065 13.8669 73.2828 14.0037C73.1591 14.1371 73.0127 14.2478 72.8434 14.3357C72.6774 14.4203 72.4902 14.4626 72.2819 14.4626C71.9759 14.4626 71.7073 14.4041 71.4762 14.2869C71.2483 14.1697 71.0709 13.9972 70.944 13.7693C70.817 13.5414 70.7535 13.2598 70.7535 12.9246C70.7535 12.6707 70.7975 12.4363 70.8854 12.2214C70.9733 12.0066 71.1035 11.821 71.276 11.6648C71.4485 11.5053 71.665 11.3816 71.9254 11.2937C72.1891 11.2058 72.4934 11.1619 72.8385 11.1619H73.5709ZM77.5699 9.08179V9.77515H75.1041V9.08179H77.5699ZM75.9098 7.79761H76.774V13.0564C76.774 13.2354 76.7952 13.3705 76.8375 13.4617C76.8831 13.5528 76.9401 13.613 77.0084 13.6423C77.0768 13.6716 77.15 13.6863 77.2281 13.6863C77.2867 13.6863 77.3518 13.6798 77.4235 13.6667C77.4951 13.6505 77.5439 13.6375 77.5699 13.6277L77.5651 14.365C77.5065 14.3878 77.4283 14.4089 77.3307 14.4285C77.233 14.4513 77.1093 14.4626 76.9596 14.4626C76.774 14.4626 76.6015 14.4187 76.442 14.3308C76.2825 14.2429 76.1539 14.0964 76.0563 13.8914C75.9586 13.683 75.9098 13.4031 75.9098 13.0515V7.79761ZM79.528 9.08179V14.365H78.6686V9.08179H79.528ZM78.6198 7.68042C78.6198 7.53394 78.6604 7.41024 78.7418 7.30933C78.8232 7.20841 78.9453 7.15796 79.108 7.15796C79.2708 7.15796 79.3929 7.20841 79.4742 7.30933C79.5589 7.41024 79.6012 7.53394 79.6012 7.68042C79.6012 7.82039 79.5589 7.94084 79.4742 8.04175C79.3929 8.1394 79.2708 8.18823 79.108 8.18823C78.9453 8.18823 78.8232 8.1394 78.7418 8.04175C78.6604 7.94084 78.6198 7.82039 78.6198 7.68042ZM81.7594 10.2097V14.365H80.8951V9.08179H81.7106L81.7594 10.2097ZM81.5494 11.5232L81.1979 11.5085C81.1946 11.1472 81.2353 10.8136 81.3199 10.5076C81.4078 10.1983 81.5315 9.92977 81.691 9.7019C81.8538 9.47404 82.0475 9.29826 82.2721 9.17456C82.4967 9.04761 82.7457 8.98413 83.0192 8.98413C83.234 8.98413 83.4293 9.01994 83.6051 9.09155C83.7809 9.15991 83.9306 9.27059 84.0543 9.42358C84.178 9.57658 84.2724 9.77515 84.3375 10.0193C84.4059 10.2602 84.4401 10.5548 84.4401 10.9031V14.365H83.5758V10.8933C83.5758 10.6166 83.5449 10.3953 83.483 10.2292C83.4244 10.06 83.3333 9.93791 83.2096 9.86304C83.0892 9.78491 82.9362 9.74585 82.7506 9.74585C82.5813 9.74585 82.4235 9.79305 82.277 9.88745C82.1305 9.98185 82.0019 10.1121 81.8912 10.2781C81.7838 10.4441 81.6992 10.6345 81.6373 10.8494C81.5787 11.061 81.5494 11.2856 81.5494 11.5232ZM88.6002 9.08179H89.3766V14.4089C89.3766 14.8744 89.2952 15.2585 89.1324 15.5613C88.9729 15.864 88.75 16.087 88.4635 16.2302C88.177 16.3767 87.8466 16.45 87.4723 16.45C87.3388 16.45 87.1712 16.4255 86.9694 16.3767C86.7675 16.3279 86.5657 16.253 86.3639 16.1521C86.1621 16.0544 85.9961 15.9307 85.8658 15.781L86.2223 15.1804C86.4078 15.3692 86.6048 15.5043 86.8131 15.5857C87.0214 15.6671 87.22 15.7078 87.4088 15.7078C87.6334 15.7078 87.8287 15.6671 87.9948 15.5857C88.1608 15.5043 88.2893 15.3708 88.3805 15.1853C88.4716 15.003 88.5172 14.7589 88.5172 14.4529V10.2439L88.6002 9.08179ZM85.5631 11.9773V11.4841C85.5631 11.0479 85.6038 10.6736 85.6852 10.3611C85.7666 10.0453 85.8837 9.78654 86.0367 9.58472C86.193 9.37964 86.3802 9.22827 86.5983 9.13062C86.8164 9.03296 87.0605 8.98413 87.3307 8.98413C87.6041 8.98413 87.8401 9.03947 88.0387 9.15015C88.2373 9.26082 88.4017 9.42196 88.5319 9.63354C88.6653 9.84188 88.7695 10.0958 88.8444 10.3953C88.9225 10.6915 88.9762 11.0268 89.0055 11.4011V12.0603C88.9762 12.4314 88.9225 12.7651 88.8444 13.0613C88.7695 13.3575 88.6637 13.6098 88.527 13.8181C88.3935 14.0264 88.2275 14.186 88.0289 14.2966C87.8304 14.4073 87.5944 14.4626 87.3209 14.4626C87.054 14.4626 86.8131 14.4122 86.5983 14.3113C86.3834 14.2071 86.1979 14.0525 86.0416 13.8474C85.8886 13.6391 85.7698 13.3803 85.6852 13.071C85.6038 12.7585 85.5631 12.394 85.5631 11.9773ZM86.4274 11.4841V11.9773C86.4274 12.2703 86.4485 12.5258 86.4908 12.7439C86.5332 12.9587 86.5983 13.1378 86.6862 13.281C86.7773 13.421 86.8929 13.5251 87.0328 13.5935C87.1761 13.6619 87.347 13.696 87.5455 13.696C87.7864 13.696 87.9834 13.6375 88.1364 13.5203C88.2893 13.4031 88.4114 13.2485 88.5026 13.0564C88.597 12.8611 88.6718 12.6511 88.7272 12.4265V11.0398C88.6946 10.8738 88.6474 10.7143 88.5856 10.5613C88.527 10.405 88.4505 10.2667 88.3561 10.1462C88.2617 10.0225 88.1477 9.92489 88.0143 9.85327C87.8841 9.78166 87.7311 9.74585 87.5553 9.74585C87.3567 9.74585 87.1858 9.78166 87.0426 9.85327C86.8994 9.92489 86.7822 10.0323 86.691 10.1755C86.5999 10.3188 86.5332 10.4994 86.4908 10.7175C86.4485 10.9356 86.4274 11.1912 86.4274 11.4841Z" fill="white"/>
</svg>
